<?xml version="1.0" encoding="utf-8"?>
<!-- Generator: Adobe Illustrator 16.0.0, SVG Export Plug-In . SVG Version: 6.00 Build 0)  -->
<!DOCTYPE svg PUBLIC "-//W3C//DTD SVG 1.1//EN" "http://www.w3.org/Graphics/SVG/1.1/DTD/svg11.dtd">
<svg version="1.1" id="Map" xmlns:inkscape="http://www.inkscape.org/namespaces/inkscape"
	 xmlns="http://www.w3.org/2000/svg" xmlns:xlink="http://www.w3.org/1999/xlink" x="0px" y="0px" width="792px" height="611.921px"
	 viewBox="0 0 792 611.921" enable-background="new 0 0 792 611.921" xml:space="preserve">
<g>
	<defs>
		<rect id="SVGID_1_" x="20.107" y="73.107" width="777.784" height="597.705"/>
	</defs>
	<clipPath id="SVGID_2_">
		<use xlink:href="#SVGID_1_"  overflow="visible"/>
	</clipPath>
	<path clip-path="url(#SVGID_2_)" fill="#CCCCCC" stroke="#FFFFFF" stroke-width="0.7108" d="M371.067,229.094L371.067,229.094
		l-0.387,2.166l0.586,0.24l2.186,0.877l-0.586,0.887l1.66,0.605l-0.797,1.318l-0.107,0.164l-0.449,0.686l-0.166,0.252l-0.412,0.705
		l1.408,0.6l0.219,0.145l1.34-1.951l0.143,0.174l0.088,0.24l0.818,1.4l0.604,1.014l0.078,0.135l0.988,2.264l0.143,0.148l2.627-2.709
		l0.061,0.123l0.074,0.088l0.541,0.838l0.5,0.807l0.549,0.379l-0.074,0.352l0.299,0.438l1.682,0.766l1.691,0.74l1.766,0.719
		l1.25,0.457l0.039,0.018l4.002,1.752l0.949,1.93l0.285,1.006l-0.02,2.043l1.006,0.889l3.791,3.348l5.012,4.334l0.281-3.375
		l0.805-1.049l1.166-0.506l0.17-0.074l3.342-1.328l1.648-3.258l0.451-0.898l1.197-1.594l1.418-0.422l0.9,0.129l0.6,0.416
		l1.199,0.314l0.559-0.516l0.322-1.424l-0.232-0.953l0.002-0.076l0.08-1.703l0.771-1.715l0.023-1.004l0.256-0.932l0.266-0.961
		l0.984-1.627l0.658-1.084l-10.791-0.625l-5.537-0.434l-1.984-0.451l-1.088-0.264l-1.186-1.564l-0.5-0.717l0.809-0.387l-0.012-0.658
		l-1.359,0.73l-0.35-0.619l-1.602-1.992l-0.035-0.475l2.453-1.117l0.449-0.205l-0.883-1.414l1.156-0.73l-0.744-0.363l-1.086-0.348
		l-0.459-0.248l-0.367-0.289l-0.715-1.203l-1.719,0.533l-0.736,0.596l-1.506,0.918l0.951-0.432l0.719,1.004l-1.441,0.658
		l-0.35-0.818l-1.451,0.447l-0.16,0.07l-1.51,0.619l-2.727,0.791l-1.377,0.381l-0.168-0.049l-0.635,0.166l-0.836,0.004l-0.328-0.027
		l-0.094,0.014l-0.025-0.004l0.236-1.707l-1.059-1.23l-2.604-0.316l-2.082-0.742l-2.396,0.881l-0.34-0.121l-0.156,0.498
		l-0.449,0.682l-0.902,1.314l-0.227,0.268l2.223,1.477l-1.418,2.098l-3.785-1.693L371.067,229.094"/>
</g>
<g>
	<defs>
		<rect id="SVGID_3_" x="7.107" y="7.107" width="777.784" height="597.705"/>
	</defs>
	<clipPath id="SVGID_4_">
		<use xlink:href="#SVGID_3_"  overflow="visible"/>
	</clipPath>
	
		<g id="ALAND" transform="translate(32695.03108616028,17079.201988487588) scale(0.08184229514005058)" inkscape:label="ALAND" inkscape:groupmode="layer" clip-path="url(#SVGID_4_)">
	</g>
</g>
</svg>
